<?xml version="1.0" encoding="UTF-8"?>
<svg xmlns="http://www.w3.org/2000/svg" xmlns:xlink="http://www.w3.org/1999/xlink" viewBox="0 0 48 48" width="48px" height="48px">
<g id="surface17425164">
<path style="fill-rule:nonzero;fill:rgb(0%,0%,0%);fill-opacity:1;stroke-width:1;stroke-linecap:butt;stroke-linejoin:round;stroke:rgb(100%,100%,100%);stroke-opacity:1;stroke-miterlimit:10;" d="M 157.662721 85.999999 C 157.662721 125.499691 125.499691 157.662721 85.999999 157.662721 C 46.500306 157.662721 14.337276 125.499691 14.337276 85.999999 C 14.337276 46.500306 46.500306 14.337276 85.999999 14.337276 C 125.499691 14.337276 157.662721 46.500306 157.662721 85.999999 Z M 28.672637 85.999999 C 28.672637 117.754653 54.245344 143.32736 85.999999 143.32736 C 117.754653 143.32736 143.32736 117.754653 143.32736 85.999999 C 143.32736 54.245344 117.754653 28.672637 85.999999 28.672637 C 54.245344 28.672637 28.672637 54.245344 28.672637 85.999999 Z M 130.555089 69.5946 C 132.399816 70.819724 134.216379 72.664452 134.216379 75.720221 C 133.610858 79.395594 131.16061 81.859924 127.471155 81.859924 C 126.246031 81.859924 125.64051 81.240321 123.809865 80.620718 C 111.544541 73.875494 93.7732 69.5946 76.60738 69.5946 C 68.031511 69.5946 58.836039 70.819724 50.865691 72.664452 C 49.640567 72.664452 49.020963 73.269973 47.190318 73.269973 C 43.514946 73.889576 41.050615 70.819724 41.050615 67.144352 C 41.050615 63.468979 42.895343 61.638334 45.345591 61.032813 C 55.160666 58.568483 65.567181 57.329277 76.60738 57.329277 C 95.603845 57.329277 115.233996 61.624252 130.555089 69.5946 Z M 121.97922 91.055396 C 123.809865 92.28052 125.034989 94.111165 125.034989 95.955893 C 124.415386 99.011662 122.584741 101.46191 119.528971 101.46191 C 118.303847 101.46191 117.064641 100.842307 115.839517 100.236786 C 105.418921 93.491562 90.703349 89.81619 74.776735 89.81619 C 66.806387 89.81619 59.455642 91.041314 53.935542 92.266438 C 52.710418 92.886041 52.090815 92.886041 50.865691 92.886041 C 47.795839 92.886041 45.965194 90.435793 45.965194 87.985545 C 45.965194 84.915693 47.190318 83.704651 50.26017 82.479527 C 57.610914 80.6348 64.975741 78.790072 75.396338 78.790072 C 92.548076 78.790072 108.488772 83.085048 121.97922 91.055396 Z M 115.219914 110.19268 C 116.445038 111.417804 117.670162 112.037407 117.670162 114.487656 C 116.445038 117.557507 114.614393 118.768549 112.783747 118.768549 C 111.544541 118.768549 110.93902 118.163028 109.713896 117.543425 C 100.518424 112.037407 88.858622 108.967556 76.60738 108.967556 C 69.862156 108.967556 62.511411 110.19268 56.38579 111.417804 C 55.160666 111.417804 53.935542 112.037407 53.315939 112.037407 C 50.865691 112.037407 49.035045 110.19268 49.035045 107.742432 C 49.035045 105.292184 50.246088 103.461538 52.696336 103.461538 C 60.666684 101.616811 68.651114 100.391687 77.226983 100.391687 C 91.322952 100.391687 104.193796 104.052978 115.219914 110.19268 Z M 115.219914 110.19268 " transform="matrix(0.277395,0,0,0.277395,0.144,0.144)"/>
<path style=" stroke:none;fill-rule:nonzero;fill:rgb(100%,100%,100%);fill-opacity:1;" d="M 24 4.121094 C 13.042969 4.121094 4.121094 13.042969 4.121094 24 C 4.121094 34.957031 13.042969 43.878906 24 43.878906 C 34.957031 43.878906 43.878906 34.957031 43.878906 24 C 43.878906 13.042969 34.957031 4.121094 24 4.121094 Z M 24 8.097656 C 32.808594 8.097656 39.902344 15.191406 39.902344 24 C 39.902344 32.808594 32.808594 39.902344 24 39.902344 C 15.191406 39.902344 8.097656 32.808594 8.097656 24 C 8.097656 15.191406 15.191406 8.097656 24 8.097656 Z M 21.394531 16.046875 C 18.332031 16.046875 15.445312 16.390625 12.722656 17.074219 C 12.042969 17.242188 11.53125 17.75 11.53125 18.769531 C 11.53125 19.789062 12.214844 20.640625 13.234375 20.46875 C 13.742188 20.46875 13.914062 20.300781 14.253906 20.300781 C 16.464844 19.789062 19.015625 19.449219 21.394531 19.449219 C 26.15625 19.449219 31.085938 20.636719 34.488281 22.507812 C 34.996094 22.679688 35.164062 22.851562 35.503906 22.851562 C 36.527344 22.851562 37.207031 22.167969 37.375 21.148438 C 37.375 20.300781 36.871094 19.789062 36.359375 19.449219 C 32.109375 17.238281 26.664062 16.046875 21.394531 16.046875 Z M 21.058594 22 C 18.167969 22 16.125 22.511719 14.085938 23.023438 C 13.234375 23.363281 12.894531 23.699219 12.894531 24.550781 C 12.894531 25.230469 13.402344 25.910156 14.253906 25.910156 C 14.59375 25.910156 14.765625 25.910156 15.105469 25.738281 C 16.636719 25.398438 18.675781 25.058594 20.886719 25.058594 C 25.304688 25.058594 29.386719 26.078125 32.277344 27.949219 C 32.617188 28.117188 32.960938 28.289062 33.300781 28.289062 C 34.148438 28.289062 34.65625 27.609375 34.828125 26.761719 C 34.828125 26.25 34.488281 25.742188 33.980469 25.402344 C 30.238281 23.191406 25.816406 22 21.058594 22 Z M 21.566406 27.992188 C 19.1875 27.992188 16.972656 28.332031 14.761719 28.84375 C 14.082031 28.84375 13.746094 29.351562 13.746094 30.03125 C 13.746094 30.710938 14.253906 31.222656 14.933594 31.222656 C 15.105469 31.222656 15.445312 31.050781 15.785156 31.050781 C 17.484375 30.710938 19.523438 30.371094 21.394531 30.371094 C 24.792969 30.371094 28.027344 31.222656 30.578125 32.75 C 30.917969 32.921875 31.085938 33.089844 31.429688 33.089844 C 31.9375 33.089844 32.445312 32.753906 32.785156 31.902344 C 32.785156 31.222656 32.445312 31.050781 32.105469 30.710938 C 29.046875 29.007812 25.476562 27.992188 21.566406 27.992188 Z M 21.566406 27.992188 "/>
</g>
</svg>
